<svg xmlns="http://www.w3.org/2000/svg" xmlns:xlink="http://www.w3.org/1999/xlink" width="104" height="12" viewBox="0 0 104 12">
    <defs>
        <path id="a" d="M0 .063h8.535v10.002H0z"/>
        <path id="c" d="M0 11.85h103.71V0H0z"/>
    </defs>
    <g fill="none" fill-rule="evenodd">
        <g transform="translate(0 1.786)">
            <mask id="b" fill="#fff">
                <use xlink:href="#a"/>
            </mask>
            <path fill="#000" d="M5 1.85c.888 0 1.692.359 2.274.94l1.26-1.26A4.985 4.985 0 0 0 5 .063c-1.378 0-2.628.561-3.534 1.467A4.985 4.985 0 0 0 0 5.064c0 1.379.56 2.629 1.466 3.534A4.985 4.985 0 0 0 5 10.065c1.38 0 2.63-.561 3.535-1.467l-1.261-1.26A3.205 3.205 0 0 1 5 8.277c-.887 0-1.69-.36-2.273-.94a3.205 3.205 0 0 1-.941-2.274c0-.888.36-1.691.941-2.273A3.205 3.205 0 0 1 5 1.849" mask="url(#b)"/>
        </g>
        <path fill="#000" d="M14.265 10.115a3.265 3.265 0 1 1 0-6.53 3.265 3.265 0 0 1 0 6.53m0-8.26A5 5 0 0 0 9.27 6.85a5 5 0 0 0 4.995 4.995A5 5 0 0 0 19.26 6.85a5 5 0 0 0-4.995-4.995M20.644 11.73h1.833V1.97h-1.833zM26.628 2.542a4.15 4.15 0 0 0-2.23-.648c-.282 0-.554.04-.807.104v1.816a2.338 2.338 0 0 1 3.038 2.227v5.7h1.832v-5.68c0-.712-.079-1.417-.427-2.036a4.212 4.212 0 0 0-1.406-1.483M32.622 2.542a4.15 4.15 0 0 0-2.23-.648c-.841 0-1.584.352-2.054.66a5.3 5.3 0 0 1 .663.927c.089.158.164.318.227.478a2.338 2.338 0 0 1 3.394 2.081v5.701h1.833v-5.68c0-.712-.079-1.417-.427-2.036a4.212 4.212 0 0 0-1.406-1.483M38.61 2.542a4.15 4.15 0 0 0-2.228-.648c-.842 0-1.585.352-2.054.66a5.3 5.3 0 0 1 .662.927c.089.158.164.318.228.478a2.338 2.338 0 0 1 3.394 2.081v5.701h1.832v-5.68c0-.712-.079-1.417-.427-2.036a4.212 4.212 0 0 0-1.406-1.483M74.349 10.115a3.265 3.265 0 1 1 0-6.53 3.265 3.265 0 0 1 0 6.53m0-8.26a5.001 5.001 0 0 0-4.996 4.995 5.001 5.001 0 0 0 4.996 4.996 5.001 5.001 0 0 0 4.996-4.996 5.001 5.001 0 0 0-4.996-4.996M46.826 10.115a3.265 3.265 0 1 1 0-6.53 3.265 3.265 0 0 1 0 6.53m0-8.26A5.001 5.001 0 0 0 41.83 6.85a5.001 5.001 0 0 0 4.996 4.996A5.001 5.001 0 0 0 51.82 6.85a5.001 5.001 0 0 0-4.995-4.996M103.283 4.025a4.211 4.211 0 0 0-1.406-1.484 4.15 4.15 0 0 0-2.23-.648c-1.138 0-2.096.645-2.44.955V1.97h-1.834v9.761h1.833V6.04a2.339 2.339 0 0 1 2.336-2.335 2.338 2.338 0 0 1 2.336 2.336v5.69h1.833V6.06c0-.712-.08-1.417-.428-2.036M59.717 2.541a4.151 4.151 0 0 0-2.23-.648c-1.139 0-2.097.645-2.441.955V1.97h-1.833v9.761h1.833V6.041a2.339 2.339 0 0 1 2.336-2.336 2.339 2.339 0 0 1 2.336 2.336v5.69h1.832V6.06c0-.712-.079-1.417-.427-2.036a4.213 4.213 0 0 0-1.406-1.484M66.168 0h-1.833v1.97h-1.439v1.502h1.439v5.839c0 1.4 1.135 2.535 2.535 2.535h1.187v-1.833h-1.044a.846.846 0 0 1-.845-.846V3.472h1.972V1.97h-1.972V0zM90.048 8.88l-2.162-6.91h-1.794L83.93 8.88l-2.163-6.91h-1.794l3.054 9.76h1.805l2.157-6.893 2.157 6.893h1.804l3.054-9.76H92.21z"/>
    </g>
</svg>
